<svg width="25" height="25" viewBox="0 0 25 25" fill="none" xmlns="http://www.w3.org/2000/svg">
<g id="icones">
<path id="Vector" d="M24.4305 17.3393C24.4305 21.7857 21.7798 24.4364 17.3335 24.4364H15.8798C15.208 24.4364 14.6583 23.8867 14.6583 23.2149V16.1667C14.6583 15.8368 14.9271 15.5559 15.2569 15.5559L17.4068 15.5192C17.5778 15.507 17.7244 15.3849 17.761 15.2139L18.1885 12.8808C18.2252 12.6609 18.0542 12.4532 17.8221 12.4532L15.2202 12.4899C14.8782 12.4899 14.6095 12.2211 14.5972 11.8913L14.5484 8.89857C14.5484 8.70313 14.7072 8.53213 14.9148 8.53213L17.8465 8.48326C18.0542 8.48326 18.213 8.32447 18.213 8.11681L18.1641 5.18512C18.1641 4.97746 18.0053 4.81868 17.7976 4.81868L14.4995 4.86755C12.4718 4.90419 10.8594 6.56546 10.896 8.59319L10.9571 11.9524C10.9693 12.2944 10.7006 12.5632 10.3585 12.5754L8.89272 12.5998C8.68506 12.5998 8.52627 12.7586 8.52627 12.9663L8.56291 15.2872C8.56291 15.4948 8.7217 15.6536 8.92936 15.6536L10.3952 15.6292C10.7372 15.6292 11.006 15.8979 11.0182 16.2277L11.1281 23.1904C11.1403 23.8745 10.5906 24.4364 9.90658 24.4364H7.09707C2.65071 24.4364 0 21.7857 0 17.3271V7.10293C0 2.65657 2.65071 0.00585938 7.09707 0.00585938H17.3335C21.7798 0.00585938 24.4305 2.65657 24.4305 7.10293V17.3393Z" fill="white" fill-opacity="0.5"/>
</g>
</svg>
