<svg width="25" height="25" viewBox="0 0 25 25" fill="none" xmlns="http://www.w3.org/2000/svg">
<g id="icones">
<path id="Vector" d="M17.9114 0H7.66994C3.22137 0 0.569336 2.65203 0.569336 7.10061V17.3299C0.569336 21.7907 3.22137 24.4427 7.66994 24.4427H17.8992C22.3478 24.4427 24.9998 21.7907 24.9998 17.3421V7.10061C25.0121 2.65203 22.36 0 17.9114 0ZM12.7907 16.9632C10.1753 16.9632 8.04881 14.8367 8.04881 12.2214C8.04881 9.60599 10.1753 7.47947 12.7907 7.47947C15.4061 7.47947 17.5326 9.60599 17.5326 12.2214C17.5326 14.8367 15.4061 16.9632 12.7907 16.9632ZM20.0257 5.96402C19.9646 6.11068 19.8791 6.24511 19.7691 6.36733C19.6469 6.47732 19.5124 6.56287 19.3658 6.62398C19.2191 6.68508 19.0603 6.72175 18.9014 6.72175C18.5714 6.72175 18.2659 6.59953 18.0337 6.36733C17.9237 6.24511 17.8381 6.11068 17.777 5.96402C17.7159 5.81737 17.6792 5.65849 17.6792 5.49961C17.6792 5.34073 17.7159 5.18186 17.777 5.0352C17.8381 4.87632 17.9237 4.75411 18.0337 4.63189C18.3147 4.3508 18.7425 4.21637 19.1336 4.30192C19.2191 4.31414 19.2925 4.33858 19.3658 4.37525C19.4391 4.39969 19.5124 4.43635 19.5858 4.48524C19.6469 4.5219 19.708 4.58301 19.7691 4.63189C19.8791 4.75411 19.9646 4.87632 20.0257 5.0352C20.0868 5.18186 20.1235 5.34073 20.1235 5.49961C20.1235 5.65849 20.0868 5.81737 20.0257 5.96402Z" fill="white" fill-opacity="0.5"/>
</g>
</svg>
